<svg width="48" height="48" viewBox="0 0 48 48" fill="none" xmlns="http://www.w3.org/2000/svg">
<path d="M48 24C48 10.7452 37.2548 7.55471e-05 24 7.58128e-05C10.7452 7.60785e-05 -3.55072e-06 10.7452 -2.28742e-06 24C-1.02411e-06 37.2548 10.7452 48 24 48C37.2548 48 48 37.2548 48 24Z" fill="white"/>
<mask id="mask0" mask-type="alpha" maskUnits="userSpaceOnUse" x="0" y="0" width="48" height="48">
<path d="M48 24C48 10.7452 37.2548 7.55471e-05 24 7.58128e-05C10.7452 7.60785e-05 -3.55072e-06 10.7452 -2.28742e-06 24C-1.02411e-06 37.2548 10.7452 48 24 48C37.2548 48 48 37.2548 48 24Z" fill="white"/>
</mask>
<g mask="url(#mask0)">
<path d="M12.6458 22.5195C12.5082 22.7167 12.1001 39.4062 15.0307 42.823H31.633C31.633 42.823 36.1643 30.0089 33.0777 22.5195H12.5449" fill="#460209"/>
<path d="M28.4917 31.6953H19.3008V37.8868H28.4917V31.6953Z" fill="#FBBCA0"/>
<g style="mix-blend-mode:multiply">
<path d="M21.5211 36.1853C22.9189 36.7489 24.408 37.052 25.9148 37.0796C26.7765 37.0729 27.636 36.99 28.4831 36.8319V31.6953H19.3105V34.9057C19.9703 35.4534 20.7176 35.886 21.5211 36.1853Z" fill="#E6E7E8"/>
</g>
<path d="M33.8438 20.0448C33.8759 19.8155 34.2612 19.444 34.4309 19.3202C34.5079 19.2661 34.5975 19.2325 34.6911 19.2226C34.7847 19.2126 34.8793 19.2267 34.966 19.2634C35.0527 19.3001 35.1286 19.3582 35.1866 19.4323C35.2447 19.5064 35.2829 19.5941 35.2977 19.6871C35.5537 20.8252 35.4479 22.015 34.995 23.0901C34.7395 23.5798 34.3619 23.9952 33.8989 24.2963C33.841 24.3314 33.7749 24.3508 33.7072 24.3526C33.6396 24.3545 33.5726 24.3386 33.5129 24.3067C33.4531 24.2748 33.4028 24.2278 33.3667 24.1705C33.3307 24.1132 33.3102 24.0475 33.3073 23.9798L33.8438 20.0448Z" fill="#FBBCA0"/>
<path d="M33.7661 20.5367C33.789 20.3761 34.0642 20.1101 34.1835 20.0184C34.2393 19.9807 34.3038 19.9575 34.3709 19.9511C34.438 19.9446 34.5057 19.9551 34.5678 19.9816C34.6298 20.008 34.6842 20.0496 34.726 20.1025C34.7679 20.1554 34.7958 20.2179 34.8072 20.2844C34.865 20.5248 34.8958 20.771 34.8989 21.0182C34.9518 21.6017 34.8439 22.1886 34.5871 22.7151C34.4078 23.0675 34.1389 23.3665 33.8074 23.5819C33.7654 23.6063 33.7179 23.6195 33.6693 23.6203C33.6208 23.6211 33.5728 23.6094 33.5301 23.5864C33.4873 23.5634 33.4512 23.5299 33.425 23.4889C33.3989 23.448 33.3837 23.4011 33.3809 23.3526L33.7661 20.5367Z" fill="#DDA78F"/>
<path d="M13.7239 20.0448C13.6964 19.8155 13.3066 19.444 13.1369 19.3202C13.0598 19.2661 12.9703 19.2325 12.8767 19.2226C12.7831 19.2126 12.6885 19.2267 12.6018 19.2634C12.5151 19.3001 12.4392 19.3582 12.3812 19.4323C12.3231 19.5064 12.2849 19.5941 12.2701 19.6871C12.0133 20.8256 12.1208 22.016 12.5774 23.0901C12.8302 23.5802 13.2064 23.9959 13.6689 24.2963C13.7268 24.3314 13.7928 24.3508 13.8605 24.3526C13.9282 24.3545 13.9952 24.3386 14.0549 24.3067C14.1146 24.2748 14.165 24.2278 14.2011 24.1705C14.2371 24.1132 14.2576 24.0475 14.2605 23.9798L13.7239 20.0448Z" fill="#FBBCA0"/>
<path d="M13.7931 20.5371C13.7701 20.3766 13.4904 20.1106 13.3711 20.0188C13.3156 19.9809 13.2515 19.9576 13.1845 19.9511C13.1176 19.9446 13.0502 19.9551 12.9884 19.9816C12.9266 20.0082 12.8726 20.0499 12.8313 20.1029C12.7899 20.1559 12.7627 20.2185 12.752 20.2848C12.6926 20.5251 12.6603 20.7712 12.6557 21.0187C12.6028 21.6022 12.7107 22.189 12.9675 22.7156C13.1486 23.0681 13.419 23.367 13.7518 23.5824C13.7934 23.607 13.8407 23.6204 13.8891 23.6213C13.9375 23.6222 13.9853 23.6105 14.0278 23.5874C14.0703 23.5643 14.1061 23.5306 14.1317 23.4895C14.1572 23.4484 14.1717 23.4014 14.1737 23.3531L13.7931 20.5371Z" fill="#DDA78F"/>
<path d="M34.1466 20.7832C34.218 23.371 33.6426 25.9358 32.4726 28.2451C31.3797 30.1488 29.8774 31.7858 28.0744 33.0377C26.6985 34.0559 25.1804 35.2437 23.4101 35.097C21.5756 34.9456 20.1309 33.3771 18.7826 32.148C16.8486 30.4015 15.369 28.2103 14.4715 25.7639C13.9142 24.1629 13.635 22.4784 13.6459 20.7832C13.6459 12.3949 18.2322 7.12071 23.8963 7.12071C29.5603 7.12071 34.1466 12.3949 34.1466 20.7832Z" fill="#FBBCA0"/>
<path d="M37.8798 40.6862L27.9001 37.6914H19.8924L9.90811 40.6862C9.90811 40.6862 5.28515 42.6537 4.77148 48.8773H43.0165C42.5028 42.6537 37.8798 40.6862 37.8798 40.6862Z" fill="#FBBCA0"/>
<path d="M37.8798 40.6877L32.3763 39.032L23.9146 47.4891L15.4208 39.0412L9.91727 40.6877C9.91727 40.6877 5.2943 42.6552 4.78064 48.8788H43.0256C42.5028 42.6552 37.8798 40.6877 37.8798 40.6877Z" fill="#056F8C"/>
<path d="M16.9343 10.4502C16.9343 10.4502 21.8692 18.279 34.1099 19.6228C34.1099 19.6228 36.4031 10.707 27.8176 6.36842C27.8222 6.37301 21.2363 3.62126 16.9343 10.4502Z" fill="#6B1D24"/>
<path d="M18.2047 12.0327C18.2047 12.0327 14.9943 14.0965 13.6184 19.8523C13.6184 19.8523 12.1324 9.00574 19.8053 7.65279L18.2047 12.0327Z" fill="#3C2415"/>
<path d="M30.6924 18.712C30.6924 18.712 33.9807 39.6071 28.7891 45.5233C28.7891 45.5233 35.4254 44.5373 35.7556 35.4015C35.7556 35.4015 36.9343 16.7399 32.4443 10.3008L30.6924 18.712Z" fill="#6B1D24"/>
<path d="M16.6681 45.5205C16.6681 45.5205 9.02741 44.6033 11.1325 21.1124C11.1325 21.1124 11.6553 8.06441 19.3007 7.76172L18.842 12.7149C18.842 12.7149 14.4484 14.022 15.0171 24.3503C15.0308 24.3503 14.586 40.9847 16.6681 45.5205Z" fill="#6B1D24"/>
</g>
</svg>
